<svg xmlns="http://www.w3.org/2000/svg" viewBox="0 0 1200 940" font-family="Segoe UI, Arial, sans-serif">
  <defs>
    <linearGradient id="nodeGrad" x1="0" y1="0" x2="0" y2="1">
      <stop offset="0" stop-color="#eaf3fb"/>
      <stop offset="1" stop-color="#d7e8f7"/>
    </linearGradient>
    <linearGradient id="s2dGrad" x1="0" y1="0" x2="0" y2="1">
      <stop offset="0" stop-color="#fdf3e0"/>
      <stop offset="1" stop-color="#f8e6c4"/>
    </linearGradient>
    <linearGradient id="vmGrad" x1="0" y1="0" x2="0" y2="1">
      <stop offset="0" stop-color="#ffffff"/>
      <stop offset="1" stop-color="#e8eef5"/>
    </linearGradient>
    <marker id="arrow" markerWidth="10" markerHeight="10" refX="8" refY="3" orient="auto" markerUnits="strokeWidth">
      <path d="M0,0 L8,3 L0,6 Z" fill="#5b6b7a"/>
    </marker>
    <marker id="arrowLM" markerWidth="10" markerHeight="10" refX="8" refY="3" orient="auto" markerUnits="strokeWidth">
      <path d="M0,0 L8,3 L0,6 Z" fill="#e6007e"/>
    </marker>
  </defs>

  <rect x="0" y="0" width="1200" height="940" fill="#f7f9fc"/>

  <text x="600" y="40" text-anchor="middle" font-size="26" font-weight="700" fill="#1f3a56">R730cluster &#8211; 2-Node Hyper-V Failover Cluster</text>
  <text x="600" y="66" text-anchor="middle" font-size="14" fill="#5b6b7a">Storage Spaces Direct (S2D) &#8226; 8 nested Hyper-V VMs running Windows Server 2016 / 2019 / 2022 / 2025</text>

  <!-- Cluster boundary -->
  <rect x="40" y="90" width="1120" height="710" rx="16" fill="none" stroke="#7aa3c9" stroke-width="2" stroke-dasharray="10 6"/>
  <rect x="60" y="78" width="280" height="26" rx="6" fill="#7aa3c9"/>
  <text x="200" y="96" text-anchor="middle" font-size="14" font-weight="600" fill="#ffffff">R730cluster &#8211; Failover Cluster</text>

  <!-- ==================== NODE R730-225 ==================== -->
  <g>
    <rect x="80" y="130" width="480" height="430" rx="12" fill="url(#nodeGrad)" stroke="#4a7cab" stroke-width="2"/>
    <rect x="80" y="130" width="480" height="46" rx="12" fill="#2e5f8a"/>
    <rect x="80" y="164" width="480" height="12" fill="#2e5f8a"/>
    <text x="100" y="160" font-size="17" font-weight="700" fill="#ffffff">R730-225</text>
    <text x="540" y="160" text-anchor="end" font-size="12" fill="#cfe3f5">Dell PowerEdge R730 &#8226; Hyper-V Host (Node 1)</text>

    <!-- HV2016-1 -->
    <rect x="100" y="196" width="210" height="120" rx="8" fill="url(#vmGrad)" stroke="#0f6cbd" stroke-width="1.5"/>
    <rect x="100" y="196" width="210" height="28" rx="8" fill="#0f6cbd"/>
    <rect x="100" y="216" width="210" height="8" fill="#0f6cbd"/>
    <text x="112" y="215" font-size="13" font-weight="600" fill="#ffffff">VM: HV2016-1</text>
    <circle cx="252" cy="210" r="4" fill="#4ade80"/>
    <text x="298" y="214" text-anchor="end" font-size="10" fill="#c9f7d6">Running</text>
    <text x="112" y="246" font-size="12" fill="#33475b">Guest OS: Windows Server 2016</text>
    <text x="112" y="263" font-size="11" fill="#5b6b7a">Role: Hyper-V (nested)</text>
    <rect x="112" y="272" width="186" height="32" rx="6" fill="#eef8ee" stroke="#3e8e41" stroke-width="1.2"/>
    <text x="205" y="292" text-anchor="middle" font-size="11" font-weight="600" fill="#2c6e2f">Nested VM: alpine-CV8</text>

    <!-- HV2019-1 -->
    <rect x="330" y="196" width="210" height="120" rx="8" fill="url(#vmGrad)" stroke="#0f6cbd" stroke-width="1.5"/>
    <rect x="330" y="196" width="210" height="28" rx="8" fill="#0f6cbd"/>
    <rect x="330" y="216" width="210" height="8" fill="#0f6cbd"/>
    <text x="342" y="215" font-size="13" font-weight="600" fill="#ffffff">VM: HV2019-1</text>
    <circle cx="482" cy="210" r="4" fill="#4ade80"/>
    <text x="528" y="214" text-anchor="end" font-size="10" fill="#c9f7d6">Running</text>
    <text x="342" y="246" font-size="12" fill="#33475b">Guest OS: Windows Server 2019</text>
    <text x="342" y="263" font-size="11" fill="#5b6b7a">Role: Hyper-V (nested)</text>
    <rect x="342" y="272" width="186" height="32" rx="6" fill="#eef8ee" stroke="#3e8e41" stroke-width="1.2"/>
    <text x="435" y="292" text-anchor="middle" font-size="11" font-weight="600" fill="#2c6e2f">Nested VM: alpine-CV9</text>

    <!-- HV2022-1 -->
    <rect x="100" y="330" width="210" height="120" rx="8" fill="url(#vmGrad)" stroke="#0f6cbd" stroke-width="1.5"/>
    <rect x="100" y="330" width="210" height="28" rx="8" fill="#0f6cbd"/>
    <rect x="100" y="350" width="210" height="8" fill="#0f6cbd"/>
    <text x="112" y="349" font-size="13" font-weight="600" fill="#ffffff">VM: HV2022-1</text>
    <circle cx="252" cy="344" r="4" fill="#4ade80"/>
    <text x="298" y="348" text-anchor="end" font-size="10" fill="#c9f7d6">Running</text>
    <text x="112" y="380" font-size="12" fill="#33475b">Guest OS: Windows Server 2022</text>
    <text x="112" y="397" font-size="11" fill="#5b6b7a">Role: Hyper-V (nested)</text>
    <rect x="112" y="406" width="186" height="32" rx="6" fill="#eef8ee" stroke="#3e8e41" stroke-width="1.2"/>
    <text x="205" y="426" text-anchor="middle" font-size="11" font-weight="600" fill="#2c6e2f">Nested VM: alpine-CV10</text>

    <!-- HV2025-1 -->
    <rect x="330" y="330" width="210" height="120" rx="8" fill="url(#vmGrad)" stroke="#0f6cbd" stroke-width="1.5"/>
    <rect x="330" y="330" width="210" height="28" rx="8" fill="#0f6cbd"/>
    <rect x="330" y="350" width="210" height="8" fill="#0f6cbd"/>
    <text x="342" y="349" font-size="13" font-weight="600" fill="#ffffff">VM: HV2025-1</text>
    <circle cx="482" cy="344" r="4" fill="#4ade80"/>
    <text x="528" y="348" text-anchor="end" font-size="10" fill="#c9f7d6">Running</text>
    <text x="342" y="380" font-size="12" fill="#33475b">Guest OS: Windows Server 2025</text>
    <text x="342" y="397" font-size="11" fill="#5b6b7a">Role: Hyper-V (nested)</text>
    <rect x="342" y="406" width="186" height="32" rx="6" fill="#eef8ee" stroke="#3e8e41" stroke-width="1.2" stroke-dasharray="5 4"/>
    <text x="435" y="426" text-anchor="middle" font-size="11" font-weight="600" fill="#2c6e2f">Nested VM: alpine-CV10</text>

    <!-- Hypervisor bar -->
    <rect x="100" y="466" width="440" height="34" rx="6" fill="#1f3a56"/>
    <text x="320" y="488" text-anchor="middle" font-size="12" font-weight="600" fill="#ffffff">Hyper-V Hypervisor &#8226; Nested Virtualization Enabled</text>

    <!-- NICs -->
    <rect x="100" y="510" width="140" height="32" rx="6" fill="#ffffff" stroke="#8aa5bd"/>
    <text x="170" y="530" text-anchor="middle" font-size="11" fill="#33475b">Mgmt / VM NIC Team</text>
    <rect x="250" y="510" width="140" height="32" rx="6" fill="#ffffff" stroke="#8aa5bd"/>
    <text x="320" y="530" text-anchor="middle" font-size="11" fill="#33475b">Cluster Network</text>
    <rect x="400" y="510" width="140" height="32" rx="6" fill="#0d7d8c"/>
    <text x="470" y="524" text-anchor="middle" font-size="10.5" font-weight="600" fill="#ffffff">2x 10GbE Mellanox CX</text>
    <text x="470" y="537" text-anchor="middle" font-size="10" fill="#d4f0f4">RDMA / SMB Direct (S2D)</text>
  </g>

  <!-- ==================== NODE R730-226 ==================== -->
  <g>
    <rect x="640" y="130" width="480" height="430" rx="12" fill="url(#nodeGrad)" stroke="#4a7cab" stroke-width="2"/>
    <rect x="640" y="130" width="480" height="46" rx="12" fill="#2e5f8a"/>
    <rect x="640" y="164" width="480" height="12" fill="#2e5f8a"/>
    <text x="660" y="160" font-size="17" font-weight="700" fill="#ffffff">R730-226</text>
    <text x="1100" y="160" text-anchor="end" font-size="12" fill="#cfe3f5">Dell PowerEdge R730 &#8226; Hyper-V Host (Node 2)</text>

    <!-- HV2016-2 -->
    <rect x="660" y="196" width="210" height="120" rx="8" fill="url(#vmGrad)" stroke="#0f6cbd" stroke-width="1.5"/>
    <rect x="660" y="196" width="210" height="28" rx="8" fill="#0f6cbd"/>
    <rect x="660" y="216" width="210" height="8" fill="#0f6cbd"/>
    <text x="672" y="215" font-size="13" font-weight="600" fill="#ffffff">VM: HV2016-2</text>
    <circle cx="812" cy="210" r="4" fill="#4ade80"/>
    <text x="858" y="214" text-anchor="end" font-size="10" fill="#c9f7d6">Running</text>
    <text x="672" y="246" font-size="12" fill="#33475b">Guest OS: Windows Server 2016</text>
    <text x="672" y="263" font-size="11" fill="#5b6b7a">Role: Hyper-V (nested)</text>
    <rect x="672" y="272" width="186" height="32" rx="6" fill="#eef8ee" stroke="#3e8e41" stroke-width="1.2" stroke-dasharray="5 4"/>
    <text x="765" y="292" text-anchor="middle" font-size="11" font-weight="600" fill="#2c6e2f">Nested VM: alpine-CV8</text>

    <!-- HV2019-2 -->
    <rect x="890" y="196" width="210" height="120" rx="8" fill="url(#vmGrad)" stroke="#0f6cbd" stroke-width="1.5"/>
    <rect x="890" y="196" width="210" height="28" rx="8" fill="#0f6cbd"/>
    <rect x="890" y="216" width="210" height="8" fill="#0f6cbd"/>
    <text x="902" y="215" font-size="13" font-weight="600" fill="#ffffff">VM: HV2019-2</text>
    <circle cx="1042" cy="210" r="4" fill="#4ade80"/>
    <text x="1088" y="214" text-anchor="end" font-size="10" fill="#c9f7d6">Running</text>
    <text x="902" y="246" font-size="12" fill="#33475b">Guest OS: Windows Server 2019</text>
    <text x="902" y="263" font-size="11" fill="#5b6b7a">Role: Hyper-V (nested)</text>

    <!-- HV2022-2 -->
    <rect x="660" y="330" width="210" height="120" rx="8" fill="url(#vmGrad)" stroke="#0f6cbd" stroke-width="1.5"/>
    <rect x="660" y="330" width="210" height="28" rx="8" fill="#0f6cbd"/>
    <rect x="660" y="350" width="210" height="8" fill="#0f6cbd"/>
    <text x="672" y="349" font-size="13" font-weight="600" fill="#ffffff">VM: HV2022-2</text>
    <circle cx="812" cy="344" r="4" fill="#4ade80"/>
    <text x="858" y="348" text-anchor="end" font-size="10" fill="#c9f7d6">Running</text>
    <text x="672" y="380" font-size="12" fill="#33475b">Guest OS: Windows Server 2022</text>
    <text x="672" y="397" font-size="11" fill="#5b6b7a">Role: Hyper-V (nested)</text>

    <!-- HV2025-2 -->
    <rect x="890" y="330" width="210" height="120" rx="8" fill="url(#vmGrad)" stroke="#0f6cbd" stroke-width="1.5"/>
    <rect x="890" y="330" width="210" height="28" rx="8" fill="#0f6cbd"/>
    <rect x="890" y="350" width="210" height="8" fill="#0f6cbd"/>
    <text x="902" y="349" font-size="13" font-weight="600" fill="#ffffff">VM: HV2025-2</text>
    <circle cx="1042" cy="344" r="4" fill="#4ade80"/>
    <text x="1088" y="348" text-anchor="end" font-size="10" fill="#c9f7d6">Running</text>
    <text x="902" y="380" font-size="12" fill="#33475b">Guest OS: Windows Server 2025</text>
    <text x="902" y="397" font-size="11" fill="#5b6b7a">Role: Hyper-V (nested)</text>
    <rect x="902" y="406" width="186" height="32" rx="6" fill="#eef8ee" stroke="#3e8e41" stroke-width="1.2"/>
    <text x="995" y="426" text-anchor="middle" font-size="11" font-weight="600" fill="#2c6e2f">Nested VM: alpine-CV12</text>

    <!-- Hypervisor bar -->
    <rect x="660" y="466" width="440" height="34" rx="6" fill="#1f3a56"/>
    <text x="880" y="488" text-anchor="middle" font-size="12" font-weight="600" fill="#ffffff">Hyper-V Hypervisor &#8226; Nested Virtualization Enabled</text>

    <!-- NICs -->
    <rect x="660" y="510" width="140" height="32" rx="6" fill="#ffffff" stroke="#8aa5bd"/>
    <text x="730" y="530" text-anchor="middle" font-size="11" fill="#33475b">Mgmt / VM NIC Team</text>
    <rect x="810" y="510" width="140" height="32" rx="6" fill="#ffffff" stroke="#8aa5bd"/>
    <text x="880" y="530" text-anchor="middle" font-size="11" fill="#33475b">Cluster Network</text>
    <rect x="960" y="510" width="140" height="32" rx="6" fill="#0d7d8c"/>
    <text x="1030" y="524" text-anchor="middle" font-size="10.5" font-weight="600" fill="#ffffff">2x 10GbE Mellanox CX</text>
    <text x="1030" y="537" text-anchor="middle" font-size="10" fill="#d4f0f4">RDMA / SMB Direct (S2D)</text>
  </g>

  <!-- Live migration example: Alpine VM in HV2016-1 -> Alpine VM in HV2016-2 -->
  <path d="M 298 288 L 315 288 L 315 186 L 650 186 L 650 288 L 668 288" fill="none" stroke="#e6007e" stroke-width="2.5" stroke-dasharray="7 5" marker-end="url(#arrowLM)"/>
  <rect x="432" y="179" width="100" height="15" rx="7" fill="#ffffff" stroke="#e6007e" stroke-width="0.8"/>
  <text x="482" y="190" text-anchor="middle" font-size="10" font-weight="600" fill="#e6007e">live migration</text>

  <!-- Live migration example: Alpine VM in HV2022-1 -> Alpine VM in HV2025-1 -->
  <line x1="298" y1="422" x2="338" y2="422" stroke="#e6007e" stroke-width="2.5" stroke-dasharray="7 5" marker-end="url(#arrowLM)"/>
  <rect x="270" y="451" width="100" height="15" rx="7" fill="#ffffff" stroke="#e6007e" stroke-width="0.8"/>
  <text x="320" y="462" text-anchor="middle" font-size="10" font-weight="600" fill="#e6007e">live migration</text>

  <!-- Storage network: 2x 10GbE Mellanox -->
  <path d="M 465 542 L 465 590 L 1025 590 L 1025 542" fill="none" stroke="#0d7d8c" stroke-width="3"/>
  <path d="M 475 542 L 475 598 L 1035 598 L 1035 542" fill="none" stroke="#3fa8b8" stroke-width="3"/>
  <text x="750" y="584" text-anchor="middle" font-size="11" font-weight="600" fill="#0d7d8c">Storage network: 2x 10GbE Mellanox ConnectX (RDMA / SMB Direct)</text>

  <!-- Local disks per node -->
  <g>
    <rect x="100" y="618" width="440" height="86" rx="10" fill="#ffffff" stroke="#b58a2e" stroke-width="1.5"/>
    <text x="112" y="640" font-size="12.5" font-weight="700" fill="#5a4413">R730-225 Local Disks &#8211; 4x (S2D capacity)</text>
    <g>
      <ellipse cx="150" cy="662" rx="20" ry="7" fill="#d8ab4a"/>
      <rect x="130" y="662" width="40" height="22" fill="#b58a2e"/>
      <ellipse cx="150" cy="684" rx="20" ry="7" fill="#8f6c22"/>
      <ellipse cx="150" cy="662" rx="20" ry="7" fill="#d8ab4a"/>
      <ellipse cx="250" cy="662" rx="20" ry="7" fill="#d8ab4a"/>
      <rect x="230" y="662" width="40" height="22" fill="#b58a2e"/>
      <ellipse cx="250" cy="684" rx="20" ry="7" fill="#8f6c22"/>
      <ellipse cx="250" cy="662" rx="20" ry="7" fill="#d8ab4a"/>
      <ellipse cx="350" cy="662" rx="20" ry="7" fill="#d8ab4a"/>
      <rect x="330" y="662" width="40" height="22" fill="#b58a2e"/>
      <ellipse cx="350" cy="684" rx="20" ry="7" fill="#8f6c22"/>
      <ellipse cx="350" cy="662" rx="20" ry="7" fill="#d8ab4a"/>
      <ellipse cx="450" cy="662" rx="20" ry="7" fill="#d8ab4a"/>
      <rect x="430" y="662" width="40" height="22" fill="#b58a2e"/>
      <ellipse cx="450" cy="684" rx="20" ry="7" fill="#8f6c22"/>
      <ellipse cx="450" cy="662" rx="20" ry="7" fill="#d8ab4a"/>
    </g>
  </g>
  <g>
    <rect x="660" y="618" width="440" height="86" rx="10" fill="#ffffff" stroke="#b58a2e" stroke-width="1.5"/>
    <text x="672" y="640" font-size="12.5" font-weight="700" fill="#5a4413">R730-226 Local Disks &#8211; 4x (S2D capacity)</text>
    <g>
      <ellipse cx="710" cy="662" rx="20" ry="7" fill="#d8ab4a"/>
      <rect x="690" y="662" width="40" height="22" fill="#b58a2e"/>
      <ellipse cx="710" cy="684" rx="20" ry="7" fill="#8f6c22"/>
      <ellipse cx="710" cy="662" rx="20" ry="7" fill="#d8ab4a"/>
      <ellipse cx="810" cy="662" rx="20" ry="7" fill="#d8ab4a"/>
      <rect x="790" y="662" width="40" height="22" fill="#b58a2e"/>
      <ellipse cx="810" cy="684" rx="20" ry="7" fill="#8f6c22"/>
      <ellipse cx="810" cy="662" rx="20" ry="7" fill="#d8ab4a"/>
      <ellipse cx="910" cy="662" rx="20" ry="7" fill="#d8ab4a"/>
      <rect x="890" y="662" width="40" height="22" fill="#b58a2e"/>
      <ellipse cx="910" cy="684" rx="20" ry="7" fill="#8f6c22"/>
      <ellipse cx="910" cy="662" rx="20" ry="7" fill="#d8ab4a"/>
      <ellipse cx="1010" cy="662" rx="20" ry="7" fill="#d8ab4a"/>
      <rect x="990" y="662" width="40" height="22" fill="#b58a2e"/>
      <ellipse cx="1010" cy="684" rx="20" ry="7" fill="#8f6c22"/>
      <ellipse cx="1010" cy="662" rx="20" ry="7" fill="#d8ab4a"/>
    </g>
  </g>

  <!-- Lines from disks into S2D pool -->
  <line x1="320" y1="704" x2="450" y2="732" stroke="#b58a2e" stroke-width="3" marker-end="url(#arrow)"/>
  <line x1="880" y1="704" x2="750" y2="732" stroke="#b58a2e" stroke-width="3" marker-end="url(#arrow)"/>

  <!-- S2D pool / CSV banner -->
  <rect x="180" y="732" width="840" height="48" rx="12" fill="url(#s2dGrad)" stroke="#b58a2e" stroke-width="2"/>
  <text x="600" y="752" text-anchor="middle" font-size="14" font-weight="700" fill="#5a4413">Storage Spaces Direct (S2D) Pool &#8594; Cluster Shared Volume</text>
  <text x="600" y="770" text-anchor="middle" font-size="11.5" fill="#6b5a2a">RDMA enabled &#8211; storage traffic runs as SMB Direct over the 2x 10GbE Mellanox links</text>

  <!-- Legend -->
  <g font-size="11" fill="#5b6b7a">
    <rect x="60" y="828" width="14" height="14" rx="3" fill="#0f6cbd"/>
    <text x="80" y="839">Clustered VM (nested Hyper-V guest)</text>
    <rect x="60" y="852" width="14" height="14" rx="3" fill="#eef8ee" stroke="#3e8e41"/>
    <text x="80" y="863">Nested Alpine Linux VM (alpine-CVx)</text>
    <rect x="60" y="876" width="14" height="14" rx="3" fill="#eef8ee" stroke="#3e8e41" stroke-dasharray="4 3"/>
    <text x="80" y="887">Nested VM at live migration target (dotted)</text>
    <line x1="330" y1="834" x2="344" y2="834" stroke="#e6007e" stroke-width="2.5" stroke-dasharray="6 4"/>
    <text x="350" y="839">Live migration of nested VM (example)</text>
    <line x1="330" y1="855" x2="344" y2="855" stroke="#0d7d8c" stroke-width="3"/>
    <line x1="330" y1="861" x2="344" y2="861" stroke="#3fa8b8" stroke-width="3"/>
    <text x="350" y="861">2x 10GbE Mellanox ConnectX (RDMA / SMB Direct)</text>
    <line x1="650" y1="834" x2="664" y2="834" stroke="#b58a2e" stroke-width="3"/>
    <text x="670" y="839">Local disks contributed to S2D pool</text>
    <rect x="650" y="852" width="14" height="14" rx="3" fill="none" stroke="#7aa3c9" stroke-dasharray="6 4" stroke-width="2"/>
    <text x="670" y="863">Failover cluster boundary (R730cluster)</text>
  </g>

  <text x="600" y="920" text-anchor="middle" font-size="11" fill="#8aa0b5">Note: guest VMs run Hyper-V, so enable nested virtualization per VM: Set-VMProcessor -VMName HV20xx-x -ExposeVirtualizationExtensions $true</text>
</svg>
